<?xml version="1.0" encoding="utf-8"?>
<!-- Generator: Adobe Illustrator 24.1.0, SVG Export Plug-In . SVG Version: 6.00 Build 0)  -->
<svg version="1.1" id="Layer_1" xmlns="http://www.w3.org/2000/svg" xmlns:xlink="http://www.w3.org/1999/xlink" x="0px" y="0px"
	 width="15px" viewBox="0 0 512 512" style="enable-background:new 0 0 512 512;" xml:space="preserve">
<style type="text/css">
	.st0{fill:#004445;}
</style>
<path class="st0" d="M455.7,163.2c21.7,21.7,21.7,57,0,78.7c-7.8,7.8-7.8,20.5,0,28.3c21.7,21.7,21.7,56.9,0,78.7
	c-21.7,21.7-57,21.7-78.7,0L284.3,256l92.8-92.8C398.8,141.5,434,141.5,455.7,163.2z M163.2,56.3c21.7-21.7,57-21.7,78.7,0
	c7.8,7.8,20.5,7.8,28.3,0c21.7-21.7,56.9-21.7,78.7,0c21.7,21.7,21.7,57,0,78.7L256,227.7l-92.8-92.8
	C141.5,113.2,141.5,78,163.2,56.3z M56.3,348.8c-21.7-21.7-21.7-57,0-78.7c7.8-7.8,7.8-20.5,0-28.3c-21.7-21.7-21.7-56.9,0-78.7
	c21.7-21.7,57-21.7,78.7,0l92.8,92.8l-92.8,92.8C113.2,370.5,78,370.5,56.3,348.8z M163.2,455.7c-21.7-21.7-21.7-57,0-78.7
	l92.8-92.8l92.8,92.8c21.7,21.7,21.7,56.9,0,78.7c-21.7,21.7-57,21.7-78.7,0c-7.8-7.8-20.5-7.8-28.3,0
	c-10.5,10.5-24.5,16.3-39.3,16.3C187.7,472,173.7,466.3,163.2,455.7z"/>
</svg>
