<svg xmlns="http://www.w3.org/2000/svg" viewBox="0 0 80 57"><path d="M80 4.9c-3 6-5.6 12.2-9 18-4.7 8.3-10.8 15.5-19 20.7-10.2 6.4-20.8 6.9-31.8 2.3-1.6-.7-2.7-1.6-1.9-3.4.8-1.8 2.2-1.5 3.8-.9C34.8 47 46 44 55.8 34.8c7.9-7.4 13.3-16.6 17.8-26.9-4.1-.7-7.9-1.5-11.8-2-9.1-1.2-18.2-1.6-27.2.8-11.8 3.1-18.9 11.8-19.1 23 0 .4 0 .8.1 1.4.6-.4 1-.6 1.4-.8 9-6.5 19-10.8 29.5-14 2.3-.7 4.2.1 3.8 1.8-.2 1-1.4 2.1-2.4 2.5-7.1 3.1-14.3 5.8-21.2 9.2C20.4 32.9 15 37.4 10.6 43c-3.3 4-5.2 8.6-6.2 13.7-2.9-.4-1.6-.2-4.5-.6.9-7.5 4.6-13.7 9.7-19.3.7-.8 1.3-2.3 1.2-3.4-.9-14 6.5-25.8 19.8-30.1C35.8 1.5 41.5.7 47 .4c11.2-.6 22.1 1.7 32.9 4.2.1.2.1.2.1.3z" fill="#004445"/></svg>